<svg width="17" height="13" viewBox="0 0 17 13" fill="none" xmlns="http://www.w3.org/2000/svg">
<path fill-rule="evenodd" clip-rule="evenodd" d="M0 6.5C0 6.5 3.1875 0.65625 8.5 0.65625C13.8125 0.65625 17 6.5 17 6.5C17 6.5 13.8125 12.3438 8.5 12.3438C3.1875 12.3438 0 6.5 0 6.5ZM8.5 10.2188C9.48627 10.2188 10.4322 9.82695 11.1296 9.12955C11.827 8.43215 12.2188 7.48627 12.2188 6.5C12.2188 5.51373 11.827 4.56785 11.1296 3.87045C10.4322 3.17305 9.48627 2.78125 8.5 2.78125C7.51373 2.78125 6.56785 3.17305 5.87045 3.87045C5.17305 4.56785 4.78125 5.51373 4.78125 6.5C4.78125 7.48627 5.17305 8.43215 5.87045 9.12955C6.56785 9.82695 7.51373 10.2187 8.5 10.2188V10.2188Z" fill="#B7C0C9"/>
</svg>
